<svg width="20" height="20" viewBox="0 0 20 20" fill="none" xmlns="http://www.w3.org/2000/svg">
  <path fill-rule="evenodd" clip-rule="evenodd" d="M3.3335 3.91357C3.3335 2.65017 4.40255 1.66553 5.65431 1.66553H9.99558C12.5362 1.66553 14.6481 3.64835 14.6481 6.14526C14.6481 7.48554 14.0396 8.67769 13.0829 9.49457C15.1204 9.95854 16.6661 11.7184 16.6661 13.8545C16.6661 16.3515 14.5542 18.3343 12.0136 18.3343H5.65431C4.40255 18.3343 3.3335 17.3496 3.3335 16.0862V3.91357ZM4.5835 3.91357C4.5835 3.39163 5.04067 2.91553 5.65431 2.91553H9.99558C11.898 2.91553 13.3981 4.3898 13.3981 6.14526C13.3981 7.88926 11.9176 9.35573 10.0328 9.37481H4.5835V3.91357ZM4.5835 10.625V16.0862C4.5835 16.6082 5.04067 17.0843 5.65431 17.0843H12.0136C13.916 17.0843 15.4161 15.61 15.4161 13.8545C15.4161 12.0991 13.916 10.6248 12.0136 10.6248H10.0385C10.0242 10.6249 10.0099 10.625 9.99558 10.625H4.5835Z" fill="#171717"/>
</svg>