<svg width="24" height="24" viewBox="0 0 24 24" fill="none" xmlns="http://www.w3.org/2000/svg">
  <path fill-rule="evenodd" clip-rule="evenodd" d="M21.7874 9.52788C21.9187 9.66296 21.9996 9.84733 21.9996 10.0506V14.925C21.9996 17.4283 21.5302 19.3748 20.2906 20.6813C19.0416 21.9977 17.17 22.4992 14.7749 22.4992H9.22511C6.82997 22.4992 4.95837 21.9977 3.70937 20.6813C2.4698 19.3748 2.0004 17.4283 2.0004 14.925V9.07569C2.0004 6.57245 2.4698 4.62593 3.70937 3.31945C4.95837 2.00303 6.82997 1.50146 9.22511 1.50146H13.8499C13.8617 1.50146 13.8734 1.50174 13.885 1.50227M13.0998 3.00146H9.22511C6.99544 3.00146 5.62969 3.47479 4.79753 4.35187C3.95595 5.23888 3.5004 6.70448 3.5004 9.07569V14.925C3.5004 17.2962 3.95595 18.7618 4.79753 19.6488C5.62969 20.5259 6.99544 20.9992 9.22511 20.9992H14.7749C17.0045 20.9992 18.3703 20.5259 19.2024 19.6488C20.044 18.7618 20.4996 17.2962 20.4996 14.925V10.8006H17.5497C16.1132 10.8006 14.9151 10.5569 14.1151 9.71376C13.3262 8.88229 13.0998 7.64825 13.0998 6.15102V3.00146ZM14.5998 6.15102V4.13162L19.504 9.30058H17.5497C16.2112 9.30058 15.5594 9.05676 15.2032 8.68134C14.8359 8.2942 14.5998 7.57846 14.5998 6.15102Z" fill="#171717"/>
  <path d="M14.4003 1.74195L21.7874 9.52788L14.4003 1.74195Z" fill="#171717"/>
</svg>