<svg width="24" height="24" viewBox="0 0 24 24" fill="none" xmlns="http://www.w3.org/2000/svg">
  <path d="M2.96376 4.55398C2.96376 3.95892 3.44603 3.47345 4.03718 3.47345H9.60928V17.2554H7.02316C6.61896 17.2554 6.29128 17.5853 6.29128 17.9921C6.29128 18.399 6.61896 18.7289 7.02316 18.7289H12.4683C12.8726 18.7289 13.2002 18.399 13.2002 17.9921C13.2002 17.5853 12.8726 17.2554 12.4683 17.2554H11.073V3.47345H16.645C17.2362 3.47345 17.7184 3.95892 17.7184 4.55398V6.03726C17.7184 6.44414 18.0461 6.77398 18.4503 6.77398C18.8545 6.77398 19.1822 6.44414 19.1822 6.03726V4.55398C19.1822 3.14515 18.0446 2 16.645 2H4.03718C2.63762 2 1.5 3.14515 1.5 4.55398V6.03726C1.5 6.44414 1.82767 6.77398 2.23188 6.77398C2.63609 6.77398 2.96376 6.44414 2.96376 6.03726V4.55398Z" fill="#171717"/>
  <path d="M13.6394 9.6325C13.2352 9.6325 12.9075 9.96234 12.9075 10.3692C12.9075 10.7761 13.2352 11.106 13.6394 11.106H15.2497V20.5265H13.8931C13.4889 20.5265 13.1612 20.8564 13.1612 21.2633C13.1612 21.6702 13.4889 22 13.8931 22H18.0697C18.4739 22 18.8016 21.6702 18.8016 21.2633C18.8016 20.8564 18.4739 20.5265 18.0697 20.5265H16.7134V11.106H20.48C20.7882 11.106 21.0362 11.3557 21.0362 11.6659V12.4517C21.0362 12.8586 21.3639 13.1884 21.7681 13.1884C22.1723 13.1884 22.5 12.8586 22.5 12.4517V11.6659C22.5 10.5419 21.5966 9.6325 20.48 9.6325H13.6394Z" fill="#171717"/>
</svg>