<svg width="24" height="24" viewBox="0 0 24 24" fill="none" xmlns="http://www.w3.org/2000/svg">
  <path fill-rule="evenodd" clip-rule="evenodd" d="M6.3746 8.09904C6.3746 6.60774 7.58355 5.39879 9.07485 5.39879C10.5662 5.39879 11.7751 6.60774 11.7751 8.09904C11.7751 9.59035 10.5662 10.7993 9.07485 10.7993C7.58355 10.7993 6.3746 9.59035 6.3746 8.09904ZM9.07485 6.89879C8.41197 6.89879 7.8746 7.43616 7.8746 8.09904C7.8746 8.76192 8.41197 9.29929 9.07485 9.29929C9.73773 9.29929 10.2751 8.76192 10.2751 8.09904C10.2751 7.43616 9.73773 6.89879 9.07485 6.89879Z" fill="#171717"/>
  <path fill-rule="evenodd" clip-rule="evenodd" d="M3.30312 3.30278C4.6096 1.9963 6.56296 1.49854 9.07474 1.49854H14.9255C17.4373 1.49854 19.3906 1.9963 20.6971 3.30278C22.0036 4.60927 22.5014 6.56262 22.5014 9.07441V14.9252C22.5014 17.4369 22.0036 19.3903 20.6971 20.6968C19.3906 22.0033 17.4373 22.501 14.9255 22.501H9.07474C6.56296 22.501 4.6096 22.0033 3.30312 20.6968C1.99663 19.3903 1.49887 17.4369 1.49887 14.9252V9.07441C1.49887 6.56262 1.99663 4.60927 3.30312 3.30278ZM4.36378 4.36344C3.47623 5.25099 2.99887 6.71057 2.99887 9.07441V14.9252C2.99887 15.9976 3.09712 16.8839 3.28735 17.6151L7.29149 14.9267C8.33493 14.2267 9.81834 14.2971 10.7726 15.117L10.779 15.1225L11.0972 15.4022C11.5771 15.8116 12.3882 15.8108 12.8668 15.3997L16.9233 11.9186C17.965 11.0238 19.6089 11.0238 20.6506 11.9185L21.0014 12.2198V9.07441C21.0014 6.71057 20.524 5.25099 19.6365 4.36344C18.7489 3.4759 17.2893 2.99854 14.9255 2.99854H9.07474C6.7109 2.99854 5.25132 3.4759 4.36378 4.36344ZM21.0014 14.1972L19.6732 13.0564C19.1937 12.6445 18.3803 12.6445 17.9007 13.0564L13.8442 16.5376C12.8025 17.4321 11.1586 17.4323 10.117 16.5376L10.1106 16.5321L9.79236 16.2524C9.36164 15.8849 8.62381 15.8393 8.12762 16.172L3.87696 19.0259C4.02215 19.2545 4.18461 19.4569 4.36378 19.6361C5.25132 20.5237 6.7109 21.001 9.07474 21.001H14.9255C17.2893 21.001 18.7489 20.5237 19.6365 19.6361C20.524 18.7486 21.0014 17.289 21.0014 14.9252V14.1972Z" fill="#171717"/>
</svg>