<svg width="20" height="20" viewBox="0 0 20 20" fill="none" xmlns="http://www.w3.org/2000/svg">
  <path d="M11.8579 1.66811H15.626C15.9712 1.66811 16.251 1.94793 16.251 2.29311C16.251 2.63829 15.9712 2.91811 15.626 2.91811H12.3384L8.95454 17.0822H11.9436C12.2887 17.0822 12.5686 17.3621 12.5686 17.7072C12.5686 18.0524 12.2887 18.3322 11.9436 18.3322H4.37402C4.02885 18.3322 3.74902 18.0524 3.74902 17.7072C3.74902 17.3621 4.02885 17.0822 4.37402 17.0822H7.66936L11.0533 2.91811H8.05648C7.7113 2.91811 7.43148 2.63829 7.43148 2.29311C7.43148 1.94793 7.7113 1.66811 8.05648 1.66811H11.8313C11.8402 1.66792 11.849 1.66792 11.8579 1.66811Z" fill="#171717"/>
</svg>