<svg width="24" height="24" viewBox="0 0 24 24" fill="none" xmlns="http://www.w3.org/2000/svg">
  <path d="M1.00003 12C1.00003 8.6783 3.89052 5.99951 7.40352 5.99951H8.93567C9.36956 5.99951 9.72129 6.3353 9.72129 6.74951C9.72129 7.16373 9.36956 7.49951 8.93567 7.49951H7.40352C4.72665 7.49951 2.57126 9.5366 2.57126 12C2.57126 14.4547 4.72759 16.5004 7.40352 16.5004H8.93567C9.36956 16.5004 9.72129 16.8362 9.72129 17.2504C9.72129 17.6647 9.36956 18.0004 8.93567 18.0004H7.40352C3.88958 18.0004 1.00003 15.3112 1.00003 12Z" fill="#171717"/>
  <path d="M14.2686 6.74951C14.2686 6.3353 14.6203 5.99951 15.0542 5.99951H16.5965C20.1105 5.99951 23 8.68872 23 12C23 15.3225 20.0984 18.0004 16.5965 18.0004H15.0542C14.6203 18.0004 14.2686 17.6647 14.2686 17.2504C14.2686 16.8362 14.6203 16.5004 15.0542 16.5004H16.5965C19.2641 16.5004 21.4288 14.4625 21.4288 12C21.4288 9.54527 19.2725 7.49951 16.5965 7.49951H15.0542C14.6203 7.49951 14.2686 7.16373 14.2686 6.74951Z" fill="#171717"/>
  <path d="M7.91407 11.2497C7.48018 11.2497 7.12845 11.5855 7.12845 11.9997C7.12845 12.4139 7.48018 12.7497 7.91407 12.7497H16.0855C16.5194 12.7497 16.8711 12.4139 16.8711 11.9997C16.8711 11.5855 16.5194 11.2497 16.0855 11.2497H7.91407Z" fill="#171717"/>
</svg>