<svg width="24" height="24" viewBox="0 0 24 24" fill="none" xmlns="http://www.w3.org/2000/svg">
  <path fill-rule="evenodd" clip-rule="evenodd" d="M18.383 3.8986C18.7307 3.68647 18.8451 3.22506 18.6385 2.86801C18.432 2.51096 17.9827 2.39348 17.635 2.60561C15.9891 3.60986 14.7135 4.45577 13.9146 5.91538C13.1241 7.35977 12.8542 9.29935 12.8542 12.3458C12.8542 12.3457 12.8542 12.3459 12.8542 12.3458V18.1612C12.8542 20.0003 14.3146 21.5 16.1053 21.5H19.2489C21.1675 21.5 22.5 19.979 22.5 18.1612V14.9327C22.5 13.1149 21.1675 11.5938 19.2489 11.5938H14.325C14.3697 9.05461 14.6514 7.63859 15.1912 6.65228C15.7739 5.58775 16.7095 4.91969 18.383 3.8986ZM14.3186 13.0978V18.1612C14.3186 19.1697 15.1233 19.996 16.1053 19.996H19.2489C20.3178 19.996 21.0356 19.191 21.0356 18.1612V14.9327C21.0356 13.9029 20.3178 13.0978 19.2489 13.0978H14.3186Z" fill="#171717"/>
  <path fill-rule="evenodd" clip-rule="evenodd" d="M7.02887 3.89708C7.37653 3.68518 7.49092 3.22427 7.28437 2.86761C7.07782 2.51095 6.62853 2.39359 6.28087 2.60549C4.63497 3.60866 3.35931 4.45365 2.56047 5.91167C1.76993 7.35452 1.5 9.29207 1.5 12.3354L1.50002 12.3406L1.5 12.3458V18.1612C1.5 20.0003 2.96037 21.5 4.75108 21.5H7.89472C9.81328 21.5 11.1458 19.979 11.1458 18.1612V14.9327C11.1458 13.1149 9.8133 11.5938 7.89472 11.5938H2.97061C3.01477 9.05116 3.29656 7.6343 3.83707 6.64778C4.41969 5.5844 5.35536 4.91707 7.02887 3.89708ZM2.96444 18.1612V13.0978H7.89472C8.96361 13.0978 9.68136 13.9029 9.68136 14.9327V18.1612C9.68136 19.191 8.96363 19.996 7.89472 19.996H4.75108C3.76911 19.996 2.96444 19.1697 2.96444 18.1612Z" fill="#171717"/>
</svg>