<svg width="20" height="20" viewBox="0 0 20 20" fill="none" xmlns="http://www.w3.org/2000/svg">
  <path fill-rule="evenodd" clip-rule="evenodd" d="M15.3192 3.24899C15.6089 3.07222 15.7042 2.68771 15.5321 2.39017C15.36 2.09263 14.9856 1.99473 14.6958 2.1715C13.3243 3.00838 12.2612 3.71331 11.5955 4.92964C10.9368 6.1333 10.7118 7.74962 10.7118 10.2883C10.7118 10.2883 10.7118 10.2884 10.7118 10.2883V15.1345C10.7118 16.6671 11.9288 17.9168 13.4211 17.9168H16.0408C17.6396 17.9168 18.75 16.6493 18.75 15.1345V12.4441C18.75 10.9293 17.6396 9.66169 16.0408 9.66169H11.9375C11.9747 7.54567 12.2095 6.36566 12.6594 5.54373C13.1449 4.65662 13.9246 4.09991 15.3192 3.24899ZM11.9322 10.915V15.1345C11.9322 15.9749 12.6028 16.6635 13.4211 16.6635H16.0408C16.9315 16.6635 17.5296 15.9926 17.5296 15.1345V12.4441C17.5296 11.5859 16.9315 10.915 16.0408 10.915H11.9322Z" fill="#ACACAC"/>
  <path fill-rule="evenodd" clip-rule="evenodd" d="M5.85739 3.24773C6.14711 3.07115 6.24244 2.68706 6.07031 2.38984C5.89818 2.09262 5.52378 1.99483 5.23406 2.17141C3.86248 3.00738 2.79943 3.71154 2.13372 4.92655C1.47494 6.12893 1.25 7.74355 1.25 10.2796L1.25001 10.284L1.25 10.2883V15.1345C1.25 16.6671 2.46697 17.9168 3.95923 17.9168H6.57893C8.17773 17.9168 9.28817 16.6493 9.28817 15.1345V12.4441C9.28817 10.9293 8.17775 9.66169 6.57893 9.66169H2.47551C2.51231 7.5428 2.74713 6.36208 3.19756 5.53998C3.68308 4.65383 4.4628 4.09772 5.85739 3.24773ZM2.47037 15.1345V10.915H6.57893C7.46967 10.915 8.0678 11.5859 8.0678 12.4441V15.1345C8.0678 15.9926 7.46969 16.6635 6.57893 16.6635H3.95923C3.14093 16.6635 2.47037 15.9749 2.47037 15.1345Z" fill="#ACACAC"/>
</svg>