<svg width="24" height="24" viewBox="0 0 24 24" fill="none" xmlns="http://www.w3.org/2000/svg">
  <path fill-rule="evenodd" clip-rule="evenodd" d="M4.42331 3.00049C3.60303 3.00049 2.84263 3.12407 2.28757 3.56584C1.68804 4.04301 1.49878 4.74508 1.49878 5.48292V18.5174C1.49878 19.2553 1.68804 19.9573 2.28757 20.4345C2.84263 20.8763 3.60303 20.9999 4.42331 20.9999H8.36281C9.18308 20.9999 9.94349 20.8763 10.4985 20.4345C11.0981 19.9573 11.2873 19.2553 11.2873 18.5174V5.48292C11.2873 4.74508 11.0981 4.04301 10.4985 3.56584C9.94349 3.12407 9.18308 3.00049 8.36281 3.00049H4.42331ZM2.99878 5.48292C2.99878 4.98332 3.12156 4.81917 3.22168 4.73948C3.36627 4.6244 3.69313 4.50049 4.42331 4.50049H8.36281C9.09298 4.50049 9.41984 4.6244 9.56444 4.73948C9.66455 4.81917 9.78734 4.98332 9.78734 5.48292V18.5174C9.78734 19.017 9.66455 19.1812 9.56444 19.2609C9.41984 19.376 9.09298 19.4999 8.36281 19.4999H4.42331C3.69313 19.4999 3.36627 19.376 3.22168 19.2609C3.12156 19.1812 2.99878 19.017 2.99878 18.5174V5.48292Z" fill="#171717"/>
  <path fill-rule="evenodd" clip-rule="evenodd" d="M15.6374 3.00049C14.8171 3.00049 14.0567 3.12407 13.5017 3.56584C12.9021 4.04301 12.7129 4.74508 12.7129 5.48292V18.5174C12.7129 19.2553 12.9021 19.9573 13.5017 20.4345C14.0567 20.8763 14.8171 20.9999 15.6374 20.9999H19.5769C20.3972 20.9999 21.1576 20.8763 21.7127 20.4345C22.3122 19.9573 22.5014 19.2553 22.5014 18.5174V5.48292C22.5014 4.74508 22.3122 4.04301 21.7127 3.56584C21.1576 3.12407 20.3972 3.00049 19.5769 3.00049H15.6374ZM14.2129 5.48292C14.2129 4.98332 14.3357 4.81917 14.4358 4.73948C14.5804 4.6244 14.9072 4.50049 15.6374 4.50049H19.5769C20.3071 4.50049 20.634 4.6244 20.7785 4.73948C20.8787 4.81917 21.0014 4.98332 21.0014 5.48292V18.5174C21.0014 19.017 20.8787 19.1812 20.7785 19.2609C20.634 19.376 20.3071 19.4999 19.5769 19.4999H15.6374C14.9072 19.4999 14.5804 19.376 14.4358 19.2609C14.3357 19.1812 14.2129 19.017 14.2129 18.5174V5.48292Z" fill="#171717"/>
</svg>