<svg width="24" height="24" viewBox="0 0 24 24" fill="none" xmlns="http://www.w3.org/2000/svg">
  <path fill-rule="evenodd" clip-rule="evenodd" d="M10.9531 3.97922C10.953 3.97941 10.9532 3.97903 10.9531 3.97922L9.23631 7.43937C9.05337 7.81415 8.74781 8.13439 8.434 8.36888C8.11929 8.60404 7.7282 8.80381 7.32578 8.87268L7.3232 8.87312L4.20852 9.39462C4.2084 9.39464 4.20865 9.3946 4.20852 9.39462C3.33982 9.54061 3.05684 9.88539 2.99146 10.0917C2.92586 10.2987 2.95863 10.7457 3.58066 11.3725L6.00239 13.813C6.31721 14.1303 6.52779 14.5546 6.64391 14.9634C6.76013 15.3725 6.80359 15.843 6.70695 16.2775L6.70586 16.2824L6.01253 19.3036C5.75432 20.4281 6.01549 20.8385 6.14813 20.9361C6.28134 21.034 6.75042 21.1595 7.73754 20.5691L10.6627 18.8241C11.0689 18.5859 11.5553 18.4878 12.0015 18.4878C12.4469 18.4878 12.9335 18.5856 13.3376 18.8269C13.3375 18.8268 13.3377 18.827 13.3376 18.8269L16.2568 20.5684C16.2566 20.5683 16.257 20.5685 16.2568 20.5684C17.2519 21.1606 17.7206 21.0357 17.8514 20.9396C17.981 20.8444 18.2421 20.4364 17.9829 19.303L17.2886 16.2776C17.192 15.843 17.2355 15.3725 17.3517 14.9634C17.4678 14.5546 17.6784 14.1303 17.9932 13.813L20.4149 11.3725L20.4167 11.3707C21.0428 10.744 21.0737 10.2983 21.0082 10.093C20.9422 9.88612 20.6569 9.5408 19.7874 9.39468C19.7873 9.39466 19.7876 9.3947 19.7874 9.39468L16.6724 8.87312C16.2658 8.80483 15.8717 8.60581 15.5544 8.3699C15.2385 8.13495 14.9326 7.81441 14.7496 7.43943L13.0314 3.97645C12.6205 3.1439 12.2029 2.97613 11.9966 2.97613C11.789 2.97613 11.3688 3.14602 10.9531 3.97922ZM14.3426 3.31843C13.8258 2.27171 13.018 1.5 11.9966 1.5C10.9763 1.5 10.166 2.2704 9.64431 3.31631L7.92498 6.78167L7.92232 6.7871C7.87073 6.89323 7.74741 7.04429 7.56159 7.18313C7.3764 7.32151 7.19675 7.39723 7.08159 7.41721C7.08125 7.41727 7.0809 7.41733 7.08056 7.41739L3.96809 7.93852C2.845 8.12715 1.90181 8.67795 1.59612 9.64267C1.29066 10.6067 1.74126 11.6064 2.54492 12.4163L4.96665 14.8568C5.06196 14.9529 5.16875 15.1338 5.23572 15.3696C5.30228 15.6039 5.30791 15.8165 5.27808 15.9528C5.27794 15.9534 5.2778 15.9541 5.27766 15.9547L4.58546 18.9709C4.58545 18.9709 4.58547 18.9708 4.58546 18.9709C4.29686 20.2278 4.39696 21.4757 5.28475 22.1285C6.17199 22.7809 7.3825 22.498 8.48509 21.8386L11.3994 20.1C11.4 20.0996 11.4006 20.0992 11.4012 20.0989C11.5323 20.0227 11.7482 19.9639 12.0015 19.9639C12.2566 19.9639 12.4681 20.0235 12.5912 20.097L15.5112 21.839C16.6151 22.4961 17.8271 22.7842 18.7143 22.1324C19.6027 21.4797 19.6979 20.2295 19.4103 18.9715L18.7179 15.9547C18.7178 15.9541 18.7177 15.9534 18.7175 15.9528C18.6877 15.8165 18.6933 15.6039 18.7599 15.3696C18.8269 15.1338 18.9336 14.9529 19.0289 14.8568L21.4489 12.4181C21.4492 12.4177 21.4496 12.4174 21.4499 12.4171C22.2586 11.6072 22.7106 10.6067 22.4027 9.64133C22.0952 8.67722 21.1502 8.12709 20.0279 7.93858L16.9128 7.41701C16.9127 7.41699 16.913 7.41703 16.9128 7.41701M14.3426 3.31843C14.3425 3.31821 14.3427 3.31865 14.3426 3.31843V3.31843Z" fill="#171717"/>
</svg>