<svg width="24" height="24" viewBox="0 0 24 24" fill="none" xmlns="http://www.w3.org/2000/svg">
  <path d="M15.907 10.5349C15.907 11.344 15.4697 12 14.9302 12C14.3908 12 13.9535 11.344 13.9535 10.5349C13.9535 9.72572 14.3908 9.06977 14.9302 9.06977C15.4697 9.06977 15.907 9.72572 15.907 10.5349Z" fill="#171717"/>
  <path d="M10.0465 10.5349C10.0465 11.344 9.60921 12 9.06977 12C8.53033 12 8.09302 11.344 8.09302 10.5349C8.09302 9.72572 8.53033 9.06977 9.06977 9.06977C9.60921 9.06977 10.0465 9.72572 10.0465 10.5349Z" fill="#171717"/>
  <path fill-rule="evenodd" clip-rule="evenodd" d="M12 2.96512C7.01017 2.96512 2.96512 7.01017 2.96512 12C2.96512 16.7433 6.62028 20.6328 11.2676 21.0056C11.269 19.5522 11.2828 18.4726 11.4044 17.5847C10.3781 17.4753 9.43115 17.0867 8.63354 16.4955C8.30851 16.2546 8.24033 15.7958 8.48125 15.4708C8.72218 15.1457 9.18097 15.0775 9.50599 15.3185C10.1561 15.8003 10.9292 16.0969 11.7626 16.1444C12.5551 14.0619 14.2273 12.4305 16.3371 11.6922C17.4571 11.3003 18.8014 11.2698 21.0056 11.2676C20.6328 6.62028 16.7433 2.96512 12 2.96512ZM20.9267 12.7333C18.7233 12.7384 17.669 12.7784 16.821 13.0751C15.0674 13.6887 13.6887 15.0674 13.0751 16.821C12.7784 17.669 12.7384 18.7233 12.7333 20.9267L20.9267 12.7333ZM1.5 12C1.5 6.20101 6.20101 1.5 12 1.5C17.799 1.5 22.5 6.20101 22.5 12C22.5 12.3539 22.4825 12.7039 22.4482 13.0491L22.4223 13.3096L13.3096 22.4223L13.0491 22.4482C12.7039 22.4825 12.3539 22.5 12 22.5C6.20101 22.5 1.5 17.799 1.5 12Z" fill="#171717"/>
</svg>