<svg width="20" height="20" viewBox="0 0 20 20" fill="none" xmlns="http://www.w3.org/2000/svg">
  <path d="M4.00155 3.33545C3.40975 3.33545 2.91626 3.81977 2.91626 4.44087V5.96231C2.91626 6.30749 2.63644 6.58731 2.29126 6.58731C1.94608 6.58731 1.66626 6.30749 1.66626 5.96231V4.44087C1.66626 3.13929 2.70955 2.08545 4.00155 2.08545H15.9984C17.3025 2.08545 18.3337 3.15161 18.3337 4.44087V5.96231C18.3337 6.30749 18.0538 6.58731 17.7087 6.58731C17.3635 6.58731 17.0837 6.30749 17.0837 5.96231V4.44087C17.0837 3.82417 16.5945 3.33545 15.9984 3.33545H10.6213C10.6237 3.35803 10.625 3.38098 10.625 3.40422V8.03841C10.625 8.38359 10.3452 8.66341 10 8.66341C9.65482 8.66341 9.375 8.38359 9.375 8.03841V3.40422C9.375 3.38098 9.37627 3.35803 9.37874 3.33545H4.00155Z" fill="#ACACAC"/>
  <path d="M10.625 11.7074C10.625 11.3623 10.3452 11.0824 10 11.0824C9.65482 11.0824 9.375 11.3623 9.375 11.7074V16.6646H6.74478C6.3996 16.6646 6.11978 16.9445 6.11978 17.2896C6.11978 17.6348 6.3996 17.9146 6.74478 17.9146H13.2555C13.6006 17.9146 13.8805 17.6348 13.8805 17.2896C13.8805 16.9445 13.6006 16.6646 13.2555 16.6646H10.625V11.7074Z" fill="#ACACAC"/>
  <path d="M16.0028 10.0001C16.0028 10.3453 15.723 10.6251 15.3778 10.6251H4.08671C3.74153 10.6251 3.46171 10.3453 3.46171 10.0001C3.46171 9.6549 3.74153 9.37508 4.08671 9.37508H15.3778C15.723 9.37508 16.0028 9.6549 16.0028 10.0001Z" fill="#ACACAC"/>
</svg>