<svg width="24" height="24" viewBox="0 0 24 24" fill="none" xmlns="http://www.w3.org/2000/svg">
  <path d="M3.23077 4C2.82718 4 2.5 4.32561 2.5 4.72727C2.5 5.12893 2.82718 5.45455 3.23077 5.45455H20.7692C21.1728 5.45455 21.5 5.12893 21.5 4.72727C21.5 4.32561 21.1728 4 20.7692 4H3.23077Z" fill="#171717"/>
  <path d="M11.5421 8.84848C11.1385 8.84848 10.8113 9.1741 10.8113 9.57576C10.8113 9.97742 11.1385 10.303 11.5421 10.303H20.7692C21.1728 10.303 21.5 9.97742 21.5 9.57576C21.5 9.1741 21.1728 8.84848 20.7692 8.84848H11.5421Z" fill="#171717"/>
  <path d="M2.5 14.4242C2.5 14.0226 2.82718 13.697 3.23077 13.697H20.7692C21.1728 13.697 21.5 14.0226 21.5 14.4242C21.5 14.8259 21.1728 15.1515 20.7692 15.1515H3.23077C2.82718 15.1515 2.5 14.8259 2.5 14.4242Z" fill="#171717"/>
  <path d="M11.5421 18.5455C11.1385 18.5455 10.8113 18.8711 10.8113 19.2727C10.8113 19.6744 11.1385 20 11.5421 20H20.7692C21.1728 20 21.5 19.6744 21.5 19.2727C21.5 18.8711 21.1728 18.5455 20.7692 18.5455H11.5421Z" fill="#171717"/>
</svg>