<svg width="20" height="20" viewBox="0 0 20 20" fill="none" xmlns="http://www.w3.org/2000/svg">
  <path d="M4.99976 2.29102C4.99976 1.94584 4.71993 1.66602 4.37476 1.66602C4.02958 1.66602 3.74976 1.94584 3.74976 2.29102V8.28656C3.74976 11.9083 6.50799 14.9071 10.0001 14.9071C13.4922 14.9071 16.2505 11.9083 16.2505 8.28656V2.29102C16.2505 1.94584 15.9706 1.66602 15.6255 1.66602C15.2803 1.66602 15.0005 1.94584 15.0005 2.29102V8.28656C15.0005 11.2942 12.728 13.6571 10.0001 13.6571C7.2722 13.6571 4.99976 11.2942 4.99976 8.28656V2.29102Z" fill="#ACACAC"/>
  <path d="M4.37476 17.0831C4.02958 17.0831 3.74976 17.3629 3.74976 17.7081C3.74976 18.0533 4.02958 18.3331 4.37476 18.3331H15.6255C15.9706 18.3331 16.2505 18.0533 16.2505 17.7081C16.2505 17.3629 15.9706 17.0831 15.6255 17.0831H4.37476Z" fill="#ACACAC"/>
</svg>