<svg width="24" height="24" viewBox="0 0 24 24" fill="none" xmlns="http://www.w3.org/2000/svg">
  <path fill-rule="evenodd" clip-rule="evenodd" d="M12.4143 8.10311C11.3979 7.51588 10.3015 7.36914 9.41121 7.88379C8.52122 8.39825 8.10043 9.42156 8.10043 10.5955V13.8719C8.10043 15.0458 8.52122 16.0692 9.41121 16.5836C10.3015 17.0983 11.3979 16.9515 12.4143 16.3643L15.2422 14.7261C16.2583 14.1388 16.9334 13.2617 16.9334 12.2337C16.9334 11.2056 16.2589 10.3289 15.2427 9.74161L12.4143 8.10311ZM9.60043 10.5955C9.60043 9.74117 9.89637 9.33592 10.1619 9.18243C10.4271 9.02913 10.9249 8.97503 11.6635 9.40169L14.491 11.0397C15.2297 11.4665 15.4334 11.926 15.4334 12.2337C15.4334 12.5414 15.2304 13.0005 14.4917 13.4273L11.6639 15.0655C10.9251 15.4923 10.4271 15.4383 10.1619 15.285C9.89637 15.1315 9.60043 14.7262 9.60043 13.8719V10.5955Z" fill="#171717"/>
  <path fill-rule="evenodd" clip-rule="evenodd" d="M12.0001 1.49854C6.20044 1.49854 1.49887 6.2001 1.49887 11.9998C1.49887 17.7995 6.20044 22.501 12.0001 22.501C17.7998 22.501 22.5014 17.7995 22.5014 11.9998C22.5014 6.2001 17.7998 1.49854 12.0001 1.49854ZM2.99887 11.9998C2.99887 7.02853 7.02886 2.99854 12.0001 2.99854C16.9714 2.99854 21.0014 7.02853 21.0014 11.9998C21.0014 16.971 16.9714 21.001 12.0001 21.001C7.02886 21.001 2.99887 16.971 2.99887 11.9998Z" fill="#171717"/>
</svg>