<svg width="24" height="24" viewBox="0 0 24 24" fill="none" xmlns="http://www.w3.org/2000/svg">
  <path fill-rule="evenodd" clip-rule="evenodd" d="M13.9673 3.86204C15.1023 4.49722 15.6644 5.83618 15.6644 7.4598V16.5421C15.6644 18.1617 15.1018 19.4996 13.9681 20.1357C12.834 20.7721 11.4158 20.5454 10.0589 19.6838L7.21472 17.8785C7.00701 17.7552 6.77631 17.6898 6.5601 17.6898H5.1632C4.07342 17.6898 3.12151 17.4133 2.44723 16.7304C1.77294 16.0475 1.5 15.0834 1.5 13.9797V10.0222C1.5 8.9185 1.77294 7.95441 2.44723 7.27149C3.12151 6.58858 4.07342 6.31214 5.1632 6.31214H6.5601C6.77631 6.31214 7.00702 6.24672 7.21473 6.12339L10.0588 4.31816C11.4145 3.45733 12.8327 3.22709 13.9673 3.86204ZM13.2587 5.16098C12.7668 4.88574 11.9431 4.8732 10.8372 5.5755L7.97718 7.39083L7.96961 7.39538C7.55389 7.64538 7.06441 7.79618 6.5601 7.79618H5.1632C4.29928 7.79618 3.78591 8.01442 3.48334 8.32087C3.18077 8.62731 2.96528 9.14726 2.96528 10.0222V13.9797C2.96528 14.8547 3.18077 15.3746 3.48334 15.681C3.78591 15.9875 4.29928 16.2057 5.1632 16.2057H6.5601C7.06441 16.2057 7.55389 16.3565 7.96961 16.6065L7.97718 16.6111L10.837 18.4263C11.9419 19.1279 12.7655 19.1139 13.2579 18.8376C13.7507 18.5611 14.1991 17.8609 14.1991 16.5421V7.4598C14.1991 6.13513 13.7501 5.43601 13.2587 5.16098Z" fill="#171717"/>
  <path d="M17.4223 7.45041C17.7459 7.20431 18.2051 7.27044 18.4481 7.59812C20.3827 10.2069 20.3827 13.7954 18.4481 16.4042C18.2051 16.7319 17.7459 16.798 17.4223 16.5519C17.0988 16.3058 17.0335 15.8407 17.2765 15.513C18.8195 13.4322 18.8195 10.5701 17.2765 8.48934C17.0335 8.16166 17.0988 7.69652 17.4223 7.45041Z" fill="#171717"/>
  <path d="M20.236 5.12487C19.993 4.79713 19.5338 4.73088 19.2102 4.9769C18.8866 5.22292 18.8212 5.68805 19.0641 6.01579C21.6916 9.56089 21.6916 14.4414 19.0641 17.9865C18.8212 18.3143 18.8866 18.7794 19.2102 19.0254C19.5338 19.2714 19.993 19.2052 20.236 18.8774C23.2547 14.8045 23.2547 9.19783 20.236 5.12487Z" fill="#171717"/>
</svg>